<svg xmlns="http://www.w3.org/2000/svg" xmlns:xlink="http://www.w3.org/1999/xlink" id="Layer_1" data-name="Layer 1" viewBox="0 0 465.95 466.55"><defs><style>.cls-1{fill:none}.cls-2{clip-path:url(#clip-path)}.cls-3{fill:url(#linear-gradient)}.cls-4{fill:#ffdc00}.cls-5{fill:#f6d10c}.cls-6{fill:url(#linear-gradient-2)}.cls-7{fill:url(#linear-gradient-3)}.cls-8{fill:url(#linear-gradient-4)}.cls-9{fill:url(#linear-gradient-5)}.cls-10{fill:url(#linear-gradient-6)}.cls-11{fill:url(#linear-gradient-7)}.cls-12{fill:#fff}</style><clipPath id="clip-path"><rect width="465.41" height="465.41" x=".85" y=".65" class="cls-1" rx="104.5"/></clipPath><linearGradient id="linear-gradient" x1="-1946.56" x2="-1218.16" y1="-5061.71" y2="-5061.71" gradientTransform="translate(5249.18 -1292.39) rotate(-90)" gradientUnits="userSpaceOnUse"><stop offset="0" stop-color="#ef6876"/><stop offset=".28" stop-color="#ef6974"/><stop offset=".4" stop-color="#f06c6d"/><stop offset=".48" stop-color="#f17261"/><stop offset=".56" stop-color="#f37b4f"/><stop offset=".62" stop-color="#f58638"/><stop offset=".67" stop-color="#f7931e"/><stop offset=".99" stop-color="#f6925b"/></linearGradient><linearGradient id="linear-gradient-2" x1="42.16" x2="486.65" y1="773.41" y2="3.53" gradientTransform="translate(548.8 679.17) rotate(180)" gradientUnits="userSpaceOnUse"><stop offset="0" stop-color="#fcee21"/><stop offset=".88" stop-color="#f48120"/></linearGradient><linearGradient id="linear-gradient-3" x1="226.49" x2="226.49" y1="688.23" y2="-68.38" gradientTransform="translate(548.8 679.17) rotate(180)" gradientUnits="userSpaceOnUse"><stop offset=".45" stop-color="#f0b636"/><stop offset=".68" stop-color="#f16137"/><stop offset=".99" stop-color="#f0b636"/></linearGradient><linearGradient id="linear-gradient-4" x1="101.89" x2="635.43" y1="523.23" y2="523.23" gradientTransform="translate(548.8 679.17) rotate(180)" gradientUnits="userSpaceOnUse"><stop offset="0" stop-color="#29b473"/><stop offset=".64" stop-color="#00adee"/><stop offset=".67" stop-color="#1ca5e5"/><stop offset=".73" stop-color="#4c97d5"/><stop offset=".78" stop-color="#738cc8"/><stop offset=".84" stop-color="#9283be"/><stop offset=".9" stop-color="#a87db7"/><stop offset=".95" stop-color="#b679b2"/><stop offset="1" stop-color="#ba78b1"/></linearGradient><linearGradient id="linear-gradient-5" x1="204.19" x2="487.03" y1="783.39" y2="500.55" gradientTransform="translate(548.8 679.17) rotate(180)" gradientUnits="userSpaceOnUse"><stop offset=".23" stop-color="#84cba8"/><stop offset=".59" stop-color="#00adee"/><stop offset=".94" stop-color="#008faf"/><stop offset="1" stop-color="#0089a4"/></linearGradient><linearGradient id="linear-gradient-6" x1="138.4" x2="548.4" y1="663.76" y2="663.76" gradientTransform="translate(548.8 679.17) rotate(180)" gradientUnits="userSpaceOnUse"><stop offset="0" stop-color="#00adee"/><stop offset=".06" stop-color="#059fe3"/><stop offset=".26" stop-color="#1477c6"/><stop offset=".46" stop-color="#1f59af"/><stop offset=".65" stop-color="#27439e"/><stop offset=".83" stop-color="#2c3594"/><stop offset="1" stop-color="#2e3191"/></linearGradient><linearGradient id="linear-gradient-7" x1="239.07" x2="476.4" y1="726.49" y2="726.49" gradientTransform="translate(548.8 679.17) rotate(180)" gradientUnits="userSpaceOnUse"><stop offset="0" stop-color="#eb008b"/><stop offset="1" stop-color="#b778b1"/></linearGradient></defs><title>app icon</title><g class="cls-2"><path d="M187.75-74.23C490-74.23,735,88.83,735,290s-245,364.2-547.2,364.2-561.38-.31-547.19-364.2C-347.6-14-114.46-74.23,187.75-74.23Z" class="cls-3"/><path d="M569.53,119.37C566.39,88.24,557,43,527.7-3.16,441.17-139.71,254.54-169.09,247.64-156.67,242.85-148,325.5-120.54,410.33-30A561,561,0,0,1,517.24,134.7" class="cls-4"/><path d="M592.77,119.37C589.63,88.24,580.2,43,550.93-3.16c-86.53-136.55-273.15-165.93-280-153.51C266.08-148,348.74-120.54,433.56-30A560.76,560.76,0,0,1,540.47,134.7" class="cls-5"/><path d="M262.4,618C698.17,434.44,636.4,37.3,607.12-8.89c-86.53-136.56-379.31-160.2-386.21-147.78-4.79,8.63,40.65,12,142.49,82.84,115.29,80.21,275,393-242,562C71.59,504.45-18.6,524-70.6,599" class="cls-6"/><path d="M594.11-9.06c33.51,156.24,2.95,214.22,1.44,255.59C592.4,333,483,518.7,313.4,489,136.4,458-53.74,675.54-25.45,718.21c13.89,20.95,245.2,85.87,406.05-87.83,15.5-16.74,109.87-48.29,146.34-83.22C653.61,425.86,621.29,410.75,654.77,369c41.05-51.25,2.31-166.28-18-263.66" class="cls-7"/><path d="M-86.62,69.47C-86.62-42.9,76.36-51,179.2-51s286.19-44.38,266.2,66.2c-45,249-194.65,409-266.2,340.74C69.09,250.88-86.62,181.84-86.62,69.47Z" class="cls-8"/><path d="M-35.6-2.83c0-112.37,169.31-87.41,252.93-87.41S431.4-85.2,431.4,27.17s-125.38,249-209,249S-35.6,109.54-35.6-2.83Z" class="cls-9"/><path d="M.4-30.83C.4-125,123-155.19,199-155.19S410.4-124,410.4-29.83,274.93,186,199,186,.4,63.4.4-30.83Z" class="cls-10"/><path d="M72.4-37.83c0-52.81,50-132.17,97-132.17s133.24,66.73,140,119.17c6.34,49.13-78,127-149.26,126.19C113.24,74.82,72.4,15,72.4-37.83Z" class="cls-11"/></g><rect width="925.85" height="1311.05" x="-223.93" y="-456.05" class="cls-1" transform="translate(477.99 398.95) rotate(180)"/><path d="M130.4,190.5V152q27.66-1.2,38.73-3.57,17.64-3.78,28.7-15.09,7.57-7.74,11.48-20.65,2.25-7.74,2.25-11.51h48.91V389h-60V190.5Z" class="cls-12"/><path d="M285.54,167.13v-18.7l43.72-58.68h18.27V150.3H360.9v16.83H347.53v23.3H328.11v-23.3Zm42.14-51.78-26,35h26.46v-35Z" class="cls-12"/></svg>